<svg width="24" height="24" viewBox="0 0 24 24" fill="none" xmlns="http://www.w3.org/2000/svg">
<path d="M9.5 9.5C9.77614 9.5 10 9.72386 10 10V16C10 16.2761 9.77614 16.5 9.5 16.5C9.22386 16.5 9 16.2761 9 16V10C9 9.72386 9.22386 9.5 9.5 9.5Z" fill="#AC2727"/>
<path d="M12 9.5C12.2761 9.5 12.5 9.72386 12.5 10V16C12.5 16.2761 12.2761 16.5 12 16.5C11.7239 16.5 11.5 16.2761 11.5 16V10C11.5 9.72386 11.7239 9.5 12 9.5Z" fill="#AC2727"/>
<path d="M15 10C15 9.72386 14.7761 9.5 14.5 9.5C14.2239 9.5 14 9.72386 14 10V16C14 16.2761 14.2239 16.5 14.5 16.5C14.7761 16.5 15 16.2761 15 16V10Z" fill="#AC2727"/>
<path d="M18.5 7C18.5 7.55228 18.0523 8 17.5 8H17V17C17 18.1046 16.1046 19 15 19H9C7.89543 19 7 18.1046 7 17V8H6.5C5.94772 8 5.5 7.55228 5.5 7V6C5.5 5.44772 5.94772 5 6.5 5H10C10 4.44772 10.4477 4 11 4H13C13.5523 4 14 4.44772 14 5H17.5C18.0523 5 18.5 5.44772 18.5 6V7ZM8.11803 8L8 8.05902V17C8 17.5523 8.44772 18 9 18H15C15.5523 18 16 17.5523 16 17V8.05902L15.882 8H8.11803ZM6.5 7H17.5V6H6.5V7Z" fill="#AC2727"/>
</svg>
